<?xml version="1.0" encoding="utf-8"?>
<!-- Generator: Adobe Illustrator 24.0.1, SVG Export Plug-In . SVG Version: 6.00 Build 0)  -->
<svg version="1.1" id="Ebene_1" xmlns="http://www.w3.org/2000/svg" xmlns:xlink="http://www.w3.org/1999/xlink" x="0px" y="0px"
	 viewBox="0 0 512 512" style="enable-background:new 0 0 512 512;" xml:space="preserve">
<g>
	<path d="M288.7,348.6c-12,0-21.8,9.8-21.8,21.8c0,12,9.8,21.8,21.8,21.8s21.8-9.8,21.8-21.8C310.5,358.3,300.7,348.6,288.7,348.6z
		 M288.7,381.2c-6,0-10.9-4.8-10.9-10.9c0-6,4.8-10.9,10.9-10.9c6,0,10.9,4.8,10.9,10.9C299.5,376.4,294.7,381.2,288.7,381.2z"/>
	<path d="M343.2,294.1c-12,0-21.8,9.8-21.8,21.8v54.5c0,12,9.8,21.8,21.8,21.8s21.8-9.8,21.8-21.8v-54.5
		C365,303.9,355.2,294.1,343.2,294.1z M354,370.4c0,6-4.8,10.9-10.9,10.9s-10.9-4.8-10.9-10.9v-54.5c0-6,4.8-10.9,10.9-10.9
		s10.9,4.8,10.9,10.9V370.4z"/>
	<path d="M288.7,294.1c-12,0-21.8,9.8-21.8,21.8c0,12,9.8,21.8,21.8,21.8s21.8-9.8,21.8-21.8C310.5,303.9,300.7,294.1,288.7,294.1z
		 M288.7,326.8c-6,0-10.9-4.8-10.9-10.9c0-6,4.8-10.9,10.9-10.9c6,0,10.9,4.8,10.9,10.9C299.5,321.9,294.7,326.8,288.7,326.8z"/>
	<path d="M288.7,239.6c-12,0-21.8,9.8-21.8,21.8c0,12,9.8,21.8,21.8,21.8s21.8-9.8,21.8-21.8C310.5,249.4,300.7,239.6,288.7,239.6z
		 M288.7,272.3c-6,0-10.9-4.8-10.9-10.9c0-6,4.8-10.9,10.9-10.9c6,0,10.9,4.8,10.9,10.9C299.5,267.5,294.7,272.3,288.7,272.3z"/>
	<path d="M234.2,239.6c-12,0-21.8,9.8-21.8,21.8c0,12,9.8,21.8,21.8,21.8c12,0,21.8-9.8,21.8-21.8
		C256,249.4,246.2,239.6,234.2,239.6z M234.2,272.3c-6,0-10.9-4.8-10.9-10.9c0-6,4.8-10.9,10.9-10.9s10.9,4.8,10.9,10.9
		C245.1,267.5,240.2,272.3,234.2,272.3z"/>
	<path d="M343.2,239.6c-12,0-21.8,9.8-21.8,21.8c0,12,9.8,21.8,21.8,21.8s21.8-9.8,21.8-21.8C365,249.4,355.2,239.6,343.2,239.6z
		 M343.2,272.3c-6,0-10.9-4.8-10.9-10.9c0-6,4.8-10.9,10.9-10.9s10.9,4.8,10.9,10.9C354,267.5,349.2,272.3,343.2,272.3z"/>
	<path d="M288.7,185.2c-12,0-21.8,9.8-21.8,21.8s9.8,21.8,21.8,21.8s21.8-9.8,21.8-21.8S300.7,185.2,288.7,185.2z M288.7,217.9
		c-6,0-10.9-4.8-10.9-10.9s4.8-10.9,10.9-10.9c6,0,10.9,4.8,10.9,10.9S294.7,217.9,288.7,217.9z"/>
	<path d="M343.2,185.2c-12,0-21.8,9.8-21.8,21.8s9.8,21.8,21.8,21.8S365,219.1,365,207C365,195,355.2,185.2,343.2,185.2z
		 M343.2,217.9c-6,0-10.9-4.8-10.9-10.9s4.8-10.9,10.9-10.9S354,201,354,207S349.2,217.9,343.2,217.9z"/>
	<path d="M179.7,228.8h54.5c12,0,21.8-9.8,21.8-21.8c0-12-9.8-21.8-21.8-21.8h-54.5c-12,0-21.8,9.8-21.8,21.8
		C158,219,167.8,228.8,179.7,228.8z M179.7,196.1h54.5c6,0,10.9,4.8,10.9,10.9c0,6-4.8,10.9-10.9,10.9h-54.5
		c-6,0-10.9-4.8-10.9-10.9C168.9,200.9,173.8,196.1,179.7,196.1z"/>
	<path d="M163.4,174.3h196c3,0,5.4-2.5,5.4-5.4v-43.5c0-3-2.5-5.4-5.4-5.4h-196c-3,0-5.4,2.5-5.4,5.4v43.5
		C158,171.9,160.5,174.3,163.4,174.3z M168.9,130.8H354v32.7H168.9V130.8z"/>
	<path d="M392.1,397.6V114.4c0-12-9.8-21.8-21.8-21.8H152.6c-12,0-21.8,9.8-21.8,21.8v200.8c-2.4,2.6-4.4,5.6-6,8.8
		c-3.2,6.4-4.8,13.5-4.8,20.6c0,10.6,2.2,21,6.6,30.7l12.1,27c6.1,13.6,21.5,20.4,35.6,15.6l11-3.6l11,3.6c1.7,0.6,3.6,0.9,5.3,1.2
		v0.3h168.8C382.4,419.4,392.1,409.6,392.1,397.6z M152.6,103.5h217.8c6,0,10.9,4.8,10.9,10.9v283.2c0,6-4.8,10.9-10.9,10.9H227.9
		c1.5-1.9,2.9-4,3.9-6.2l12.1-27c4.3-9.7,6.6-20.1,6.6-30.7c0-7.1-1.7-14.3-4.8-20.6c-4.8-9.8-13.5-17-23.8-20
		c-10.4-3.1-21.6-1.7-31,3.8c0.3-3.9,1-7.7,2.1-11.5v-0.1c2.6-8.7,7.3-16.5,13.7-22.9l-7.7-7.7c-3.6,3.6-6.8,7.7-9.5,12
		c-6.3-12.6-19.2-20.7-33.3-20.7c-3,0-5.4,2.5-5.4,5.4c0,17.8,12.7,33.2,30.3,36.5c-0.6,3-0.9,6-1.1,9.1
		c-11.6-7.2-26.2-7.6-38.4-1.2V114.4C141.6,108.3,146.5,103.5,152.6,103.5z M181.8,287.9c-9.6-2.4-17.1-9.8-19.3-19.3
		C172,270.9,179.4,278.4,181.8,287.9z M186.9,403.3c-1.1-0.3-2.3-0.3-3.5,0l-12.7,4.2c-8.8,2.8-18.3-1.4-22.2-9.8l-12.1-27
		c-3.7-8.2-5.7-17.2-5.6-26.3c0-5.4,1.3-10.9,3.7-15.8c3.8-7.6,10.9-13.2,19.3-14.9c8.3-1.9,17.1,0.2,23.8,5.5l4.3,3.5
		c2,1.6,4.8,1.6,6.8,0l4.3-3.5c6.7-5.3,15.4-7.4,23.8-5.5c8.3,1.9,15.4,7.3,19.3,14.9c2.5,4.9,3.7,10.3,3.7,15.8
		c0,9.1-1.9,18-5.6,26.3l-12.1,27c-3.8,8.5-13.4,12.7-22.2,9.8L186.9,403.3z"/>
	<path d="M332.2,141.6h10.9v10.9h-10.9V141.6z"/>
	<path d="M310.5,141.6h10.9v10.9h-10.9V141.6z"/>
	<path d="M288.7,141.6h10.9v10.9h-10.9V141.6z"/>
	<path d="M126,400.8l-9.4-21c-5-11-7.6-23.1-7.6-35.2c0-8.8,2-17.6,6-25.5c1.1-2.3,2.5-4.4,3.9-6.5l-8.9-6.3
		c-1.8,2.5-3.3,5.2-4.8,7.9c-4.7,9.4-7.1,19.9-7.1,30.4c0,13.7,2.9,27.2,8.5,39.6l9.4,21L126,400.8z"/>
	<path d="M403.1,141.6h10.9v119.8h-10.9V141.6z"/>
	<path d="M403.1,272.3h10.9v10.9h-10.9V272.3z"/>
</g>
</svg>
