<?xml version="1.0" encoding="utf-8"?>
<!-- Generator: Adobe Illustrator 24.0.1, SVG Export Plug-In . SVG Version: 6.00 Build 0)  -->
<svg version="1.1" id="Layer_1" xmlns="http://www.w3.org/2000/svg" xmlns:xlink="http://www.w3.org/1999/xlink" x="0px" y="0px"
	 viewBox="0 0 512 512" style="enable-background:new 0 0 512 512;" xml:space="preserve">
<g>
	<g>
		<path d="M451.3,215.6L262.1,65.7c-3.6-2.9-8.6-2.9-12.3,0L60.7,215.6c-4.6,3.7-5.6,10.7-2.2,15.7c3.4,5,9.9,6.1,14.5,2.4L256,88.7
			l183.1,145c1.8,1.5,4,2.2,6.1,2.2c3.2,0,6.3-1.6,8.4-4.6C456.9,226.3,455.9,219.2,451.3,215.6z"/>
	</g>
</g>
<g>
	<g>
		<path d="M401.2,236.2c-5.7,0-10.4,5-10.4,11.2V426h-83v-97.5c0-30.9-23.3-56.1-51.9-56.1s-51.9,25.2-51.9,56.1V426h-83V247.4
			c0-6.2-4.6-11.2-10.4-11.2s-10.4,5-10.4,11.2v189.8c0,6.2,4.6,11.2,10.4,11.2h103.7c5.5,0,9.9-4.6,10.3-10.3c0-0.3,0-0.5,0-0.9
			V328.5c0-18.6,14-33.7,31.1-33.7s31.1,15.1,31.1,33.7v108.7c0,0.3,0,0.6,0,0.9c0.4,5.8,4.9,10.4,10.3,10.4h103.7
			c5.7,0,10.4-5,10.4-11.2V247.4C411.5,241.2,406.9,236.2,401.2,236.2z"/>
	</g>
</g>
</svg>
