<?xml version="1.0" encoding="utf-8"?>
<!-- Generator: Adobe Illustrator 24.0.1, SVG Export Plug-In . SVG Version: 6.00 Build 0)  -->
<svg version="1.1" id="Ebene_1" xmlns="http://www.w3.org/2000/svg" xmlns:xlink="http://www.w3.org/1999/xlink" x="0px" y="0px"
	 viewBox="0 0 512 512" style="enable-background:new 0 0 512 512;" xml:space="preserve">
<g>
	<path d="M294.5,365.1c-14.2,0-25.7,11.5-25.7,25.7s11.5,25.7,25.7,25.7c14.2,0,25.7-11.5,25.7-25.7S308.7,365.1,294.5,365.1z
		 M294.5,403.6c-7.1,0-12.8-5.7-12.8-12.8s5.7-12.8,12.8-12.8c7.1,0,12.8,5.7,12.8,12.8S301.6,403.6,294.5,403.6z"/>
	<path d="M358.7,300.9c-14.2,0-25.7,11.5-25.7,25.7v64.2c0,14.2,11.5,25.7,25.7,25.7s25.7-11.5,25.7-25.7v-64.2
		C384.4,312.4,372.9,300.9,358.7,300.9z M371.5,390.8c0,7.1-5.7,12.8-12.8,12.8s-12.8-5.7-12.8-12.8v-64.2c0-7.1,5.7-12.8,12.8-12.8
		s12.8,5.7,12.8,12.8V390.8z"/>
	<path d="M294.5,300.9c-14.2,0-25.7,11.5-25.7,25.7s11.5,25.7,25.7,25.7c14.2,0,25.7-11.5,25.7-25.7S308.7,300.9,294.5,300.9z
		 M294.5,339.4c-7.1,0-12.8-5.7-12.8-12.8s5.7-12.8,12.8-12.8c7.1,0,12.8,5.7,12.8,12.8S301.6,339.4,294.5,339.4z"/>
	<path d="M294.5,236.7c-14.2,0-25.7,11.5-25.7,25.7c0,14.2,11.5,25.7,25.7,25.7c14.2,0,25.7-11.5,25.7-25.7
		C320.2,248.2,308.7,236.7,294.5,236.7z M294.5,275.2c-7.1,0-12.8-5.7-12.8-12.8c0-7.1,5.7-12.8,12.8-12.8c7.1,0,12.8,5.7,12.8,12.8
		C307.3,269.5,301.6,275.2,294.5,275.2z"/>
	<path d="M230.3,236.7c-14.2,0-25.7,11.5-25.7,25.7c0,14.2,11.5,25.7,25.7,25.7c14.2,0,25.7-11.5,25.7-25.7
		C256,248.2,244.5,236.7,230.3,236.7z M230.3,275.2c-7.1,0-12.8-5.7-12.8-12.8c0-7.1,5.7-12.8,12.8-12.8c7.1,0,12.8,5.7,12.8,12.8
		C243.2,269.5,237.4,275.2,230.3,275.2z"/>
	<path d="M358.7,236.7c-14.2,0-25.7,11.5-25.7,25.7c0,14.2,11.5,25.7,25.7,25.7s25.7-11.5,25.7-25.7
		C384.4,248.2,372.9,236.7,358.7,236.7z M358.7,275.2c-7.1,0-12.8-5.7-12.8-12.8c0-7.1,5.7-12.8,12.8-12.8s12.8,5.7,12.8,12.8
		C371.5,269.5,365.8,275.2,358.7,275.2z"/>
	<path d="M294.5,172.6c-14.2,0-25.7,11.5-25.7,25.7c0,14.2,11.5,25.7,25.7,25.7c14.2,0,25.7-11.5,25.7-25.7
		C320.2,184.1,308.7,172.6,294.5,172.6z M294.5,211.1c-7.1,0-12.8-5.7-12.8-12.8s5.7-12.8,12.8-12.8c7.1,0,12.8,5.7,12.8,12.8
		S301.6,211.1,294.5,211.1z"/>
	<path d="M358.7,172.6c-14.2,0-25.7,11.5-25.7,25.7c0,14.2,11.5,25.7,25.7,25.7s25.7-11.5,25.7-25.7
		C384.4,184.1,372.9,172.6,358.7,172.6z M358.7,211.1c-7.1,0-12.8-5.7-12.8-12.8s5.7-12.8,12.8-12.8s12.8,5.7,12.8,12.8
		S365.8,211.1,358.7,211.1z"/>
	<path d="M166.1,223.9h64.2c14.2,0,25.7-11.5,25.7-25.7c0-14.2-11.5-25.7-25.7-25.7h-64.2c-14.2,0-25.7,11.5-25.7,25.7
		C140.5,212.4,152,223.9,166.1,223.9z M166.1,185.4h64.2c7.1,0,12.8,5.7,12.8,12.8s-5.7,12.8-12.8,12.8h-64.2
		c-7.1,0-12.8-5.7-12.8-12.8S159.1,185.4,166.1,185.4z"/>
	<path d="M146.9,159.7h231c3.5,0,6.4-2.9,6.4-6.4V102c0-3.5-2.9-6.4-6.4-6.4h-231c-3.5,0-6.4,2.9-6.4,6.4v51.3
		C140.5,156.9,143.4,159.7,146.9,159.7z M153.3,108.4h218.2v38.5H153.3V108.4z"/>
	<path d="M416.4,422.9V89.1c0-14.2-11.5-25.7-25.7-25.7H134.1c-14.2,0-25.7,11.5-25.7,25.7v236.6c-2.8,3.1-5.2,6.6-7.1,10.4
		c-3.8,7.5-5.7,15.9-5.7,24.3c0,12.5,2.6,24.8,7.8,36.2l14.3,31.8c7.2,16,25.3,24,42,18.4l13-4.3l13,4.3c2,0.7,4.2,1.1,6.3,1.4v0.4
		h198.9C404.9,448.5,416.4,437,416.4,422.9z M134.1,76.3h256.7c7.1,0,12.8,5.7,12.8,12.8v333.7c0,7.1-5.7,12.8-12.8,12.8H222.9
		c1.8-2.2,3.4-4.7,4.6-7.3l14.3-31.8c5.1-11.4,7.8-23.7,7.8-36.2c0-8.4-2-16.8-5.7-24.3c-5.7-11.5-15.9-20-28.1-23.6
		c-12.3-3.6-25.5-2-36.5,4.5c0.3-4.6,1.2-9.1,2.5-13.5v-0.1c3.1-10.2,8.6-19.4,16.2-27l-9.1-9.1c-4.3,4.3-8,9.1-11.2,14.2
		c-7.4-14.9-22.6-24.4-39.2-24.4c-3.5,0-6.4,2.9-6.4,6.4c0,21,15,39.1,35.7,43c-0.7,3.5-1.1,7.1-1.3,10.7c-13.7-8.5-30.9-9-45.2-1.4
		V89.1C121.2,82,127,76.3,134.1,76.3z M168.5,293.6c-11.3-2.8-20.1-11.5-22.8-22.8C157,273.6,165.7,282.4,168.5,293.6z M174.6,429.6
		c-1.3-0.4-2.7-0.4-4.1,0l-15,5c-10.4,3.3-21.6-1.6-26.2-11.5L115,391.3c-4.4-9.7-6.7-20.3-6.6-31c0-6.4,1.5-12.8,4.4-18.6
		c4.5-9,12.8-15.5,22.7-17.6c9.8-2.2,20.1,0.2,28,6.5l5.1,4.1c2.3,1.9,5.7,1.9,8,0l5.1-4.1c7.9-6.3,18.1-8.7,28-6.5
		c9.8,2.2,18.2,8.6,22.7,17.6c2.9,5.8,4.4,12.1,4.4,18.6c0,10.7-2.2,21.2-6.6,31l-14.3,31.8c-4.5,10-15.8,15-26.2,11.5L174.6,429.6z
		"/>
	<path d="M345.8,121.2h12.8v12.8h-12.8V121.2z"/>
	<path d="M320.2,121.2H333v12.8h-12.8V121.2z"/>
	<path d="M294.5,121.2h12.8v12.8h-12.8V121.2z"/>
	<path d="M102.8,426.6l-11.1-24.8c-5.9-13-8.9-27.2-8.9-41.5c0-10.4,2.4-20.7,7.1-30c1.3-2.7,2.9-5.2,4.6-7.7l-10.5-7.4
		c-2.1,3-3.9,6.1-5.6,9.3c-5.5,11.1-8.4,23.4-8.4,35.8c0,16.1,3.4,32.1,10,46.7l11.1,24.8L102.8,426.6z"/>
	<path d="M429.3,121.2h12.8v141.2h-12.8V121.2z"/>
	<path d="M429.3,275.2h12.8v12.8h-12.8V275.2z"/>
</g>
</svg>
