<?xml version="1.0" encoding="utf-8"?>
<!-- Generator: Adobe Illustrator 24.0.1, SVG Export Plug-In . SVG Version: 6.00 Build 0)  -->
<svg version="1.1" id="Ebene_1" xmlns="http://www.w3.org/2000/svg" xmlns:xlink="http://www.w3.org/1999/xlink" x="0px" y="0px"
	 viewBox="0 0 512 512" style="enable-background:new 0 0 512 512;" xml:space="preserve">
<g>
	<path d="M399.1,245.1c0-4.6-3.8-8.4-8.4-8.4c-4.6,0-8.4,3.8-8.4,8.4c0,27.8-22.7,50.5-50.5,50.5c-4.6,0-8.4,3.8-8.4,8.4
		c0,4.6,3.8,8.4,8.4,8.4C368.9,312.4,399.1,282.2,399.1,245.1z"/>
	<path d="M223.7,327.1c-4.4,6.7-43.5,66.3-43.5,91.3c0,28.7,23.1,53,50.5,53s50.5-24.3,50.5-53c0-25.1-39-84.6-43.5-91.3
		c-1.6-2.4-4.2-3.8-7-3.8C227.9,323.3,225.3,324.7,223.7,327.1z M264.4,418.4c0,19.3-15.7,36.2-33.7,36.2s-33.7-16.9-33.7-36.2
		c0-13,18.5-46.8,33.7-71.1C245.9,371.6,264.4,405.5,264.4,418.4z"/>
	<path d="M138.2,180.3c-2.8,0-5.4,1.4-6.9,3.6c-5.3,7.7-52,76.1-52,105.8c0,32.5,26.4,58.9,58.9,58.9s58.9-26.4,58.9-58.9
		c0-29.7-46.7-98.1-52-105.8C143.5,181.6,140.9,180.3,138.2,180.3z M138.2,331.7c-23.2,0-42.1-18.9-42.1-42.1
		c0-16.3,23.5-57.6,42.1-85.9c18.5,28.3,42.1,69.6,42.1,85.9C180.3,312.9,161.4,331.7,138.2,331.7z"/>
	<path d="M247.6,236.6c0,4.6-3.8,8.4-8.4,8.4c-4.6,0-8.4-3.8-8.4-8.4s3.8-8.4,8.4-8.4C243.8,228.2,247.6,232,247.6,236.6z"/>
	<path d="M338.8,44.4c-1.5-2.4-4.2-3.9-7.1-3.9s-5.5,1.5-7.1,3.9c-2.4,3.8-59.6,93.7-83.5,157.1c-1.6,4.3,0.6,9.2,4.9,10.8
		c4.3,1.6,9.2-0.6,10.8-4.9c18.4-48.8,58.6-116.1,74.9-142.6c28.8,46.5,84.1,143.6,84.1,180.2c0,46.4-37.8,84.2-84.2,84.2
		c-37.6,0-70.9-25.2-81-61.4c-1.3-4.5-5.9-7.1-10.4-5.8c-4.5,1.3-7.1,5.9-5.8,10.4c12.2,43.4,52.2,73.6,97.3,73.6
		c55.7,0,101-45.3,101-101C432.7,198.7,362.9,82,338.8,44.4z"/>
</g>
</svg>
