<svg xmlns="http://www.w3.org/2000/svg" xmlns:xlink="http://www.w3.org/1999/xlink" xmlns:fi="http://pattern.flaticon.com/" x="0" y="0" width="700" height="350" viewBox="0 0 700 350"><rect x="0px" y="0px" width="100%" height="100%" opacity="1" fill="#ffffff"/><defs><g transform="matrix(0.9375 0 0 0.9375 317 93)" id="L1_3"><path d="M58.742,32.084a11.7,11.7,0,0,0-8.215-4.047A7,7,0,0,0,54,22a1,1,0,0,0-1-1H47a5.006,5.006,0,0,0-5,5v3.982c-.026-.017-.055-.024-.08-.043A9.623,9.623,0,0,0,36.146,28a11.71,11.71,0,0,0-8.888,4.084,11.169,11.169,0,0,0-2.607,8.959,13.807,13.807,0,0,0,1.3,4.1l6.867,13.734a5.565,5.565,0,0,0,2.8,2.694,5.505,5.505,0,0,0,6.525-1.757L43,58.667l.745.993a5.732,5.732,0,0,0,3.15,2.175A5.59,5.59,0,0,0,48.244,62a5.446,5.446,0,0,0,4.887-3.026L60.048,45.14a1,1,0,1,0-1.789-.894L51.342,58.081a3.472,3.472,0,0,1-3.966,1.813,3.739,3.739,0,0,1-2.032-1.435L43.8,56.4a1,1,0,0,0-1.6,0l-1.658,2.211a3.507,3.507,0,0,1-4.159,1.11,3.571,3.571,0,0,1-1.775-1.742L27.741,44.246a11.777,11.777,0,0,1-1.113-3.5,9.05,9.05,0,0,1,2.146-7.354A9.714,9.714,0,0,1,36.146,30a7.637,7.637,0,0,1,4.6,1.558,3.762,3.762,0,0,0,4.544-.024A7.607,7.607,0,0,1,49.854,30a9.714,9.714,0,0,1,7.372,3.388,9.05,9.05,0,0,1,2.146,7.354,1,1,0,0,0,1.977.3A11.169,11.169,0,0,0,58.742,32.084ZM44,26a3,3,0,0,1,3-3h4.9A5.008,5.008,0,0,1,47,27H44Zm.048,3.964c-.015.011-.033.014-.048.025V29h1.623A9.745,9.745,0,0,0,44.048,29.964Z" fill="#d4d4d4"/><path d="M56.255,41.279a.983.983,0,0,0,.152.012,1,1,0,0,0,.988-.85,7.081,7.081,0,0,0-1.687-5.75A7.713,7.713,0,0,0,49.854,32a1,1,0,0,0,0,2,5.716,5.716,0,0,1,4.338,1.995,5.107,5.107,0,0,1,1.225,4.145A1,1,0,0,0,56.255,41.279Z" fill="#d4d4d4"/><circle cx="37" cy="55" r="1" fill="#d4d4d4"/><circle cx="35" cy="52" r="1" fill="#d4d4d4"/><path d="M31,60H7a3,3,0,0,1-3-3V7A3,3,0,0,1,7,4H45a3,3,0,0,1,3,3V18a1,1,0,0,0,2,0V7a5.006,5.006,0,0,0-5-5H7A5.006,5.006,0,0,0,2,7V57a5.006,5.006,0,0,0,5,5H31a1,1,0,0,0,0-2Z" fill="#d4d4d4"/><path d="M44,19.379a1,1,0,0,0,1-1V8a1,1,0,0,0-1-1H8A1,1,0,0,0,7,8V26a1,1,0,0,0,1,1H39a1,1,0,0,0,0-2H9V9H43v9.379A1,1,0,0,0,44,19.379Z" fill="#d4d4d4"/><path d="M15,30a1,1,0,0,0-1-1H8a1,1,0,0,0-1,1v6a1,1,0,0,0,1,1h6a1,1,0,0,0,1-1Zm-2,5H9V31h4Z" fill="#d4d4d4"/><path d="M26,31V30a1,1,0,0,0-1-1H19a1,1,0,0,0-1,1v6a1,1,0,0,0,1,1h3a1,1,0,0,0,0-2H20V31h4a1,1,0,0,0,2,0Z" fill="#d4d4d4"/><path d="M15,40a1,1,0,0,0-1-1H8a1,1,0,0,0-1,1v6a1,1,0,0,0,1,1h6a1,1,0,0,0,1-1Zm-2,5H9V41h4Z" fill="#d4d4d4"/><path d="M22,41a1,1,0,0,0,0-2H19a1,1,0,0,0-1,1v6a1,1,0,0,0,1,1h4a1,1,0,0,0,0-2H20V41Z" fill="#d4d4d4"/><path d="M14,50H8a1,1,0,0,0-1,1v6a1,1,0,0,0,1,1h6a1,1,0,0,0,1-1V51A1,1,0,0,0,14,50Zm-1,6H9V52h4Z" fill="#d4d4d4"/><path d="M18,57a1,1,0,0,0,1,1h6a1,1,0,0,0,1-1V51a1,1,0,0,0-1-1H19a1,1,0,0,0-1,1Zm2-5h4v4H20Z" fill="#d4d4d4"/><path d="M18.707,14.293a1,1,0,0,0-1.414,0L15,16.586V13a1,1,0,0,0-2,0v8a1,1,0,0,0,2,0V19.414l2.293,2.293a1,1,0,0,0,1.414-1.414L16.414,18l2.293-2.293A1,1,0,0,0,18.707,14.293Z" fill="#d4d4d4"/><path d="M25,16a1,1,0,0,0,2,0,2,2,0,0,0-2-2H23a2,2,0,0,0-2,2v4a2,2,0,0,0,2,2h2a2,2,0,0,0,2-2,1,1,0,0,0-2,0H23V16Z" fill="#d4d4d4"/><path d="M30,17a2,2,0,0,0-2,2v1a2,2,0,0,0,2,2h1a2.981,2.981,0,0,0,2-.78A2.981,2.981,0,0,0,35,22a1,1,0,0,0,0-2,1,1,0,0,1-1-1V16a2,2,0,0,0-2-2H29a1,1,0,0,0,0,2h3v1Zm1,3H30V19h2A1,1,0,0,1,31,20Z" fill="#d4d4d4"/><path d="M38,13v8a1,1,0,0,0,2,0V13a1,1,0,0,0-2,0Z" fill="#d4d4d4"/></g><g transform="matrix(0.11719825863838196 0 0 0.11719825863838196 125.0000013161914 257)" id="L1_4"><path d="M365.483,272.217c-3.46,0.292-6.268,2.922-6.785,6.355c-3.805,25.225-16.688,44.962-28.133,58.066   c6.123-25.128,7.498-50.169,4.077-74.744c-4.137-29.719-15.579-58.694-33.088-83.793c-36.365-52.127-48.806-95.274-52.839-122.291   c-4.355-29.168-0.112-46.304-0.076-46.446c1.847-7-6.822-12.332-12.237-7.516c-51.519,45.827-74.285,94.214-84.311,126.736   c-3.128,10.146-5.251,19.4-6.688,27.467c-23.902-38.213-72.482-53.952-75.024-54.753c-6.401-2.019-12.126,5.175-8.715,10.961   c22.893,38.847,13.026,68.571-1.144,100.663c-3.908,8.849,9.815,14.906,13.722,6.059c13.13-29.735,23.487-59.604,9.376-95.9   c20.922,10.354,53.55,31.899,59.021,67.335c1.413,9.148,15.468,7.632,14.898-1.607c-0.054-0.866-4.096-82.754,74.175-161.86   c-0.709,29.262,6.429,86.47,57.54,159.735c20.336,29.15,49.817,90.248,18.782,171.916c-2.542,6.689,5.322,12.898,11.238,8.859   c1.524-1.041,31.019-21.536,46.406-58.593c0.917,5.266,1.551,10.619,1.551,15.353c0,95.245-77.43,172.733-172.604,172.733   c-47.034,0-90.968-18.97-120.538-52.044C45.606,413.052,32.64,371.281,37.578,327.29c3.122-27.808,11.529-50.698,17.582-65.498   c3.661-8.953-10.22-14.631-13.884-5.678c-6.392,15.628-15.274,39.836-18.604,69.502c-5.42,48.292,8.868,94.208,40.232,129.291   c32.412,36.253,80.422,57.046,131.721,57.046c103.445,0,187.604-84.217,187.604-187.733c0-19.353-8.625-45.76-8.991-46.875   C372.151,274.047,368.956,271.937,365.483,272.217z" fill="#d4d4d4"/><path d="M316.089,44.929h22.476v22.476c0,9.673,15,9.673,15,0V44.929h22.477c9.673,0,9.673-15,0-15h-22.477V7.453   c0-9.673-15-9.673-15,0v22.477h-22.476C306.416,29.929,306.416,44.929,316.089,44.929z" fill="#d4d4d4"/><path d="M483.151,80.559h-22.477V58.083c0-9.673-15-9.673-15,0v22.476h-22.477c-9.673,0-9.673,15,0,15h22.477v22.477   c0,9.673,15,9.673,15,0V95.559h22.477C492.824,95.559,492.824,80.559,483.151,80.559z" fill="#d4d4d4"/><path d="M407.967,151.357H385.49V128.88c0-4.143-3.357-7.5-7.5-7.5s-7.5,3.357-7.5,7.5v22.477h-22.476c-9.673,0-9.673,15,0,15   h22.476v22.476c0,9.673,15,9.673,15,0v-22.476h22.477C417.64,166.357,417.64,151.357,407.967,151.357z" fill="#d4d4d4"/><path d="M215.99,356.773c4.926,8.327,17.835,0.683,12.908-7.641c-12.942-21.865-25.182-39.464-25.697-40.203   c-2.924-4.194-9.381-4.196-12.306,0c-5.671,8.137-55.404,80.394-55.404,111.701c0,33.942,27.614,61.557,61.557,61.557   s61.557-27.614,61.557-61.557c0-9.344-4.112-22.407-12.571-39.938c-4.205-8.711-17.713-2.192-13.51,6.52   c9.159,18.979,11.081,28.648,11.081,33.418c0,25.672-20.885,46.557-46.557,46.557s-46.557-20.885-46.557-46.557   c0-19.845,29.48-68.353,46.541-94.036C201.826,333.829,208.853,344.715,215.99,356.773z" fill="#d4d4d4"/></g></defs><g fi:class="KUsePattern"><pattern id="pattern_L1_3" width="350" height="350" patternUnits="userSpaceOnUse"><use xlink:href="#L1_3" x="-350" y="-350"/><use xlink:href="#L1_3" x="0" y="-350"/><use xlink:href="#L1_3" x="350" y="-350"/><use xlink:href="#L1_3" x="-350" y="0"/><use xlink:href="#L1_3" x="0" y="0"/><use xlink:href="#L1_3" x="350" y="0"/><use xlink:href="#L1_3" x="-350" y="350"/><use xlink:href="#L1_3" x="0" y="350"/><use xlink:href="#L1_3" x="350" y="350"/></pattern><rect x="0" y="0" width="100%" height="100%" fill="url(#pattern_L1_3)"/></g><g fi:class="KUsePattern"><pattern id="pattern_L1_4" width="350" height="350" patternUnits="userSpaceOnUse"><use xlink:href="#L1_4" x="-350" y="-350"/><use xlink:href="#L1_4" x="0" y="-350"/><use xlink:href="#L1_4" x="350" y="-350"/><use xlink:href="#L1_4" x="-350" y="0"/><use xlink:href="#L1_4" x="0" y="0"/><use xlink:href="#L1_4" x="350" y="0"/><use xlink:href="#L1_4" x="-350" y="350"/><use xlink:href="#L1_4" x="0" y="350"/><use xlink:href="#L1_4" x="350" y="350"/></pattern><rect x="0" y="0" width="100%" height="100%" fill="url(#pattern_L1_4)"/></g></svg>