<svg xmlns="http://www.w3.org/2000/svg" xmlns:xlink="http://www.w3.org/1999/xlink" xmlns:fi="http://pattern.flaticon.com/" x="0" y="0" width="700" height="350" viewBox="0 0 700 350"><rect x="0px" y="0px" width="100%" height="100%" opacity="1" fill="#ffffff"/><defs><g transform="matrix(1.3030977187553494 -0.7239431615376622 0.7239431615376622 1.3030977187553494 35.50382472656037 -9.425092339130124)" id="L1_0"><path d="M52,2H12A3,3,0,0,0,9,5V59a3,3,0,0,0,3,3H52a3,3,0,0,0,3-3V5A3,3,0,0,0,52,2Zm1,57a1,1,0,0,1-1,1H12a1,1,0,0,1-1-1V5a1,1,0,0,1,1-1H52a1,1,0,0,1,1,1Z" fill="#ecf0f1"/><path d="M48,6H16a3,3,0,0,0-3,3v9a3,3,0,0,0,3,3H48a3,3,0,0,0,3-3V9A3,3,0,0,0,48,6Zm1,12a1,1,0,0,1-1,1H16a1,1,0,0,1-1-1V9a1,1,0,0,1,1-1H48a1,1,0,0,1,1,1Z" fill="#ecf0f1"/><path d="M50,50H44a1,1,0,0,0-1,1v6a1,1,0,0,0,1,1h6a1,1,0,0,0,1-1V51A1,1,0,0,0,50,50Zm-1,6H45V52h4Z" fill="#ecf0f1"/><path d="M48,32H46a3,3,0,0,0-3,3v2a3,3,0,0,0,3,3h2a3,3,0,0,0,3-3V35A3,3,0,0,0,48,32Zm1,5a1,1,0,0,1-1,1H46a1,1,0,0,1-1-1V35a1,1,0,0,1,1-1h2a1,1,0,0,1,1,1Z" fill="#ecf0f1"/><path d="M38,32H36a3,3,0,0,0-3,3v2a3,3,0,0,0,3,3h2a3,3,0,0,0,3-3V35A3,3,0,0,0,38,32Zm1,5a1,1,0,0,1-1,1H36a1,1,0,0,1-1-1V35a1,1,0,0,1,1-1h2a1,1,0,0,1,1,1Z" fill="#ecf0f1"/><path d="M28,32H26a3,3,0,0,0-3,3v2a3,3,0,0,0,3,3h2a3,3,0,0,0,3-3V35A3,3,0,0,0,28,32Zm1,5a1,1,0,0,1-1,1H26a1,1,0,0,1-1-1V35a1,1,0,0,1,1-1h2a1,1,0,0,1,1,1Z" fill="#ecf0f1"/><path d="M18,32H16a3,3,0,0,0-3,3v2a3,3,0,0,0,3,3h2a3,3,0,0,0,3-3V35A3,3,0,0,0,18,32Zm1,5a1,1,0,0,1-1,1H16a1,1,0,0,1-1-1V35a1,1,0,0,1,1-1h2a1,1,0,0,1,1,1Z" fill="#ecf0f1"/><path d="M48,23H46a3,3,0,0,0-3,3v2a3,3,0,0,0,3,3h2a3,3,0,0,0,3-3V26A3,3,0,0,0,48,23Zm1,5a1,1,0,0,1-1,1H46a1,1,0,0,1-1-1V26a1,1,0,0,1,1-1h2a1,1,0,0,1,1,1Z" fill="#ecf0f1"/><path d="M38,23H36a3,3,0,0,0-3,3v2a3,3,0,0,0,3,3h2a3,3,0,0,0,3-3V26A3,3,0,0,0,38,23Zm1,5a1,1,0,0,1-1,1H36a1,1,0,0,1-1-1V26a1,1,0,0,1,1-1h2a1,1,0,0,1,1,1Z" fill="#ecf0f1"/><path d="M28,23H26a3,3,0,0,0-3,3v2a3,3,0,0,0,3,3h2a3,3,0,0,0,3-3V26A3,3,0,0,0,28,23Zm1,5a1,1,0,0,1-1,1H26a1,1,0,0,1-1-1V26a1,1,0,0,1,1-1h2a1,1,0,0,1,1,1Z" fill="#ecf0f1"/><path d="M18,23H16a3,3,0,0,0-3,3v2a3,3,0,0,0,3,3h2a3,3,0,0,0,3-3V26A3,3,0,0,0,18,23Zm1,5a1,1,0,0,1-1,1H16a1,1,0,0,1-1-1V26a1,1,0,0,1,1-1h2a1,1,0,0,1,1,1Z" fill="#ecf0f1"/><path d="M48,41H46a3,3,0,0,0-3,3v2a3,3,0,0,0,3,3h2a3,3,0,0,0,3-3V44A3,3,0,0,0,48,41Zm1,5a1,1,0,0,1-1,1H46a1,1,0,0,1-1-1V44a1,1,0,0,1,1-1h2a1,1,0,0,1,1,1Z" fill="#ecf0f1"/><path d="M38,41H36a3,3,0,0,0-3,3v2a3,3,0,0,0,3,3h2a3,3,0,0,0,3-3V44A3,3,0,0,0,38,41Zm1,5a1,1,0,0,1-1,1H36a1,1,0,0,1-1-1V44a1,1,0,0,1,1-1h2a1,1,0,0,1,1,1Z" fill="#ecf0f1"/><path d="M28,41H26a3,3,0,0,0-3,3v2a3,3,0,0,0,3,3h2a3,3,0,0,0,3-3V44A3,3,0,0,0,28,41Zm1,5a1,1,0,0,1-1,1H26a1,1,0,0,1-1-1V44a1,1,0,0,1,1-1h2a1,1,0,0,1,1,1Z" fill="#ecf0f1"/><path d="M18,41H16a3,3,0,0,0-3,3v2a3,3,0,0,0,3,3h2a3,3,0,0,0,3-3V44A3,3,0,0,0,18,41Zm1,5a1,1,0,0,1-1,1H16a1,1,0,0,1-1-1V44a1,1,0,0,1,1-1h2a1,1,0,0,1,1,1Z" fill="#ecf0f1"/><path d="M38,50H36a3,3,0,0,0-3,3v2a3,3,0,0,0,3,3h2a3,3,0,0,0,3-3V53A3,3,0,0,0,38,50Zm1,5a1,1,0,0,1-1,1H36a1,1,0,0,1-1-1V53a1,1,0,0,1,1-1h2a1,1,0,0,1,1,1Z" fill="#ecf0f1"/><path d="M28,50H26a3,3,0,0,0-3,3v2a3,3,0,0,0,3,3h2a3,3,0,0,0,3-3V53A3,3,0,0,0,28,50Zm1,5a1,1,0,0,1-1,1H26a1,1,0,0,1-1-1V53a1,1,0,0,1,1-1h2a1,1,0,0,1,1,1Z" fill="#ecf0f1"/><path d="M18,50H16a3,3,0,0,0-3,3v2a3,3,0,0,0,3,3h2a3,3,0,0,0,3-3V53A3,3,0,0,0,18,50Zm1,5a1,1,0,0,1-1,1H16a1,1,0,0,1-1-1V53a1,1,0,0,1,1-1h2a1,1,0,0,1,1,1Z" fill="#ecf0f1"/><path d="M46,10H42a1,1,0,0,0-1,1v6a1,1,0,0,0,1,1h4a1,1,0,0,0,1-1V11A1,1,0,0,0,46,10Zm-1,6H43V12h2Z" fill="#ecf0f1"/><path d="M38,10H34a1,1,0,0,0-1,1v6a1,1,0,0,0,1,1h4a1,1,0,0,0,1-1V11A1,1,0,0,0,38,10Zm-1,6H35V12h2Z" fill="#ecf0f1"/><path d="M30,10H26a1,1,0,0,0-1,1v6a1,1,0,0,0,1,1h4a1,1,0,0,0,1-1V11A1,1,0,0,0,30,10Zm-1,6H27V12h2Z" fill="#ecf0f1"/><rect x="17px" y="10px" width="2px" height="2px" fill="#ecf0f1"/></g></defs><g fi:class="KUsePattern"><pattern id="pattern_L1_0" width="350" height="350" patternUnits="userSpaceOnUse"><use xlink:href="#L1_0" x="-350" y="-350"/><use xlink:href="#L1_0" x="0" y="-350"/><use xlink:href="#L1_0" x="350" y="-350"/><use xlink:href="#L1_0" x="-350" y="0"/><use xlink:href="#L1_0" x="0" y="0"/><use xlink:href="#L1_0" x="350" y="0"/><use xlink:href="#L1_0" x="-350" y="350"/><use xlink:href="#L1_0" x="0" y="350"/><use xlink:href="#L1_0" x="350" y="350"/></pattern><rect x="0" y="0" width="100%" height="100%" fill="url(#pattern_L1_0)"/></g></svg>