<svg xmlns="http://www.w3.org/2000/svg" xmlns:xlink="http://www.w3.org/1999/xlink" xmlns:fi="http://pattern.flaticon.com/" x="0" y="0" width="700" height="350" viewBox="0 0 700 350"><rect x="0px" y="0px" width="100%" height="100%" opacity="1" fill="#ffffff"/><defs><g transform="matrix(0.12724784016609192 0 0 0.12724784016609192 154.5288966929926 183.46949727088213)" id="L1_1"><path d="m120.4375 335.875c77.382812 0 120-45.457031 120-128 0-77.28125-109.390625-200.152344-114.046875-205.335938-1.558594-1.621093-3.707031-2.539062-5.953125-2.539062s-4.398438.917969-5.953125 2.539062c-4.65625 5.183594-114.046875 128.054688-114.046875 205.335938 0 82.542969 42.617188 128 120 128zm0-315.792969c22.902344 26.878907 104 126.359375 104 187.792969 0 51.09375-18.046875 112-104 112s-104-60.90625-104-112c0-61.433594 81.09375-160.914062 104-187.792969zm0 0" fill="#d6d6d6"/><path d="m344.4375 351.875c45.757812 0 72-30.535156 72-83.792969 0-50.007812-63.449219-118.75-66.144531-121.65625-1.546875-1.5625-3.65625-2.441406-5.855469-2.441406s-4.308594.878906-5.855469 2.441406c-2.695312 2.90625-66.144531 71.648438-66.144531 121.65625 0 53.257813 26.238281 83.792969 72 83.792969zm0-187.921875c15.429688 17.953125 56 68.546875 56 104.128906 0 44.984375-18.839844 67.792969-56 67.792969s-56-22.808594-56-67.792969c0-35.582031 40.566406-86.175781 56-104.128906zm0 0" fill="#d6d6d6"/><path d="m226.4375 322.578125c-2.039062 2.3125-50 57.089844-50 93.296875 0 40.671875 20.414062 64 56 64 35.582031 0 56-23.328125 56-64 0-36.207031-47.960938-90.984375-50-93.296875-1.5625-1.648437-3.730469-2.582031-6-2.582031s-4.441406.933594-6 2.582031zm6 141.296875c-26.535156 0-40-16.152344-40-48 0-21.746094 25.03125-57.144531 40-75.585938 14.976562 18.402344 40 53.808594 40 75.585938 0 31.847656-13.464844 48-40 48zm0 0" fill="#d6d6d6"/><path d="m103.636719 303.835938c.265625.027343.53125.039062.800781.039062 4.261719 0 7.777344-3.34375 7.992188-7.601562.210937-4.257813-2.949219-7.933594-7.191407-8.359376-16.710937-.839843-32.265625-8.78125-42.746093-21.824218-21.277344-27.742188-14.230469-72.464844-14.167969-72.910156.582031-4.285157-2.347657-8.257813-6.613281-8.96875-4.265626-.707032-8.324219 2.101562-9.160157 6.34375-.355469 2.113281-8.289062 51.886718 17.191407 85.199218 13.109374 16.652344 32.734374 26.878906 53.894531 28.082032zm0 0" fill="#d6d6d6"/><path d="m336.4375 319.875c14.761719-.210938 28.835938-6.273438 39.128906-16.855469 8.910156-11.460937 12.132813-26.347656 8.757813-40.464843-.820313-4.265626-4.890625-7.097657-9.175781-6.382813-4.285157.71875-7.214844 4.722656-6.597657 9.023437 2.449219 9.445313.566407 19.496094-5.136719 27.414063-7.238281 7.039063-16.882812 11.066406-26.976562 11.265625-4.417969 0-8 3.582031-8 8s3.582031 8 8 8zm0 0" fill="#d6d6d6"/><path d="m228.011719 432.714844c-2.496094-1.007813-4.421875-3.058594-5.273438-5.613282-.847656-2.550781-.535156-5.351562.859375-7.652343 1.972656-3.953125.371094-8.761719-3.585937-10.734375-3.953125-1.976563-8.757813-.371094-10.734375 3.582031-3.289063 6.109375-3.910156 13.308594-1.71875 19.890625 2.195312 6.582031 7.007812 11.96875 13.300781 14.886719 3.957031 1.976562 8.761719.371093 10.738281-3.585938 1.972656-3.953125.371094-8.757812-3.585937-10.734375zm0 0" fill="#d6d6d6"/></g><g transform="matrix(0.1171875 0 0 0.1171875 -26 25)" id="L1_2"><path d="M367.859,339.663c0-11.391-5.325-21.54-13.68-28.055c8.354-6.515,13.774-16.664,13.774-28.055    c0-11.993-6.207-22.611-15.328-29.058c9.183-7.254,14.858-18.476,14.858-31.06V148.74l-71.909-93.632h15.8V0H200.156v55.108    h16.801l-72.91,93.632v74.697c0,12.584,6.161,23.805,15.344,31.06c-9.121,6.447-14.968,17.064-14.968,29.058    c0,11.391,5.451,21.54,13.805,28.055c-8.354,6.515-13.711,16.664-13.711,28.055c0,11.993,5.737,22.611,14.858,29.058    c-9.183,7.254-15.328,18.476-15.328,31.06v64.125c0,21.823,18.256,40.078,40.078,40.078h40.078v-0.659    c6.671,5.12,15.007,8.675,24.047,8.675h16.031c9.04,0,17.376-3.554,24.047-8.675v0.659h40.078    c21.823,0,39.076-18.256,39.076-40.078v-64.125c0-12.584-5.66-23.805-14.843-31.06    C361.761,362.275,367.859,351.657,367.859,339.663z M215.186,40.078V15.029h81.159v25.049H215.186z M235.919,55.108h40.692    l68.596,89.174H167.323L235.919,55.108z M332.415,319.624c11.326,0,20.54,9.214,20.54,20.54s-9.214,20.54-20.54,20.54h-20.039    v15.029h16.031c13.536,0,24.047,10.511,24.047,24.047v64.125c0,13.536-10.51,25.049-24.047,25.049h-28.18    c2.325-6.012,3.632-11.134,3.632-17.033H288.83c0,13.536-11.012,25.049-24.548,25.049H248.25    c-13.535,0-24.548-11.512-24.548-25.049h-15.029c0,5.9,1.307,11.022,3.632,17.033h-28.18c-13.535,0-25.049-11.512-25.049-25.049    v-64.125c0-13.536,11.513-24.047,25.049-24.047h80.157v-15.029h-84.164c-11.326,0-20.54-9.214-20.54-20.54    s9.214-20.54,20.54-20.54h84.164v-15.029h-84.164c-11.326,0-20.54-9.214-20.54-20.54s9.214-20.54,20.54-20.54h84.164v-15.029    h-80.157c-13.535,0-25.049-11.512-25.049-25.049v-64.125h193.378v64.125c0,13.536-10.51,25.049-24.047,25.049h-16.031v15.029    h20.039c11.326,0,20.54,9.214,20.54,20.54s-9.214,20.54-20.54,20.54h-20.039v15.029H332.415z" fill="#d4d4d4"/><rect x="200px" y="112px" width="16px" height="15px" fill="#d4d4d4"/><rect x="216px" y="96px" width="16px" height="15px" fill="#d4d4d4"/><rect x="280px" y="304px" width="16px" height="15px" fill="#d4d4d4"/><rect x="280px" y="248px" width="16px" height="15px" fill="#d4d4d4"/><rect x="280px" y="360px" width="16px" height="15px" fill="#d4d4d4"/></g></defs><g fi:class="KUsePattern"><pattern id="pattern_L1_1" width="350" height="350" patternUnits="userSpaceOnUse"><use xlink:href="#L1_1" x="-350" y="-350"/><use xlink:href="#L1_1" x="0" y="-350"/><use xlink:href="#L1_1" x="350" y="-350"/><use xlink:href="#L1_1" x="-350" y="0"/><use xlink:href="#L1_1" x="0" y="0"/><use xlink:href="#L1_1" x="350" y="0"/><use xlink:href="#L1_1" x="-350" y="350"/><use xlink:href="#L1_1" x="0" y="350"/><use xlink:href="#L1_1" x="350" y="350"/></pattern><rect x="0" y="0" width="100%" height="100%" fill="url(#pattern_L1_1)"/></g><g fi:class="KUsePattern"><pattern id="pattern_L1_2" width="350" height="350" patternUnits="userSpaceOnUse"><use xlink:href="#L1_2" x="-350" y="-350"/><use xlink:href="#L1_2" x="0" y="-350"/><use xlink:href="#L1_2" x="350" y="-350"/><use xlink:href="#L1_2" x="-350" y="0"/><use xlink:href="#L1_2" x="0" y="0"/><use xlink:href="#L1_2" x="350" y="0"/><use xlink:href="#L1_2" x="-350" y="350"/><use xlink:href="#L1_2" x="0" y="350"/><use xlink:href="#L1_2" x="350" y="350"/></pattern><rect x="0" y="0" width="100%" height="100%" fill="url(#pattern_L1_2)"/></g></svg>